<svg width="35" height="35" viewBox="0 0 35 35" fill="none" xmlns="http://www.w3.org/2000/svg">
<path d="M11.7071 28.1819C11.7071 28.3267 11.5448 28.4425 11.3402 28.4425C11.1073 28.4642 10.945 28.3484 10.945 28.1819C10.945 28.0372 11.1073 27.9214 11.312 27.9214C11.5237 27.8997 11.7071 28.0155 11.7071 28.1819ZM9.51259 27.8563C9.46319 28.001 9.60432 28.1675 9.81601 28.2109C9.99948 28.2833 10.2112 28.2109 10.2535 28.0662C10.2959 27.9214 10.1618 27.7549 9.95008 27.6898C9.76662 27.6392 9.56198 27.7115 9.51259 27.8563ZM12.6315 27.7332C12.4269 27.7839 12.2858 27.9214 12.3069 28.0879C12.3281 28.2326 12.5116 28.3267 12.7233 28.276C12.9279 28.2254 13.069 28.0879 13.0479 27.9431C13.0267 27.8056 12.8362 27.7115 12.6315 27.7332ZM17.2747 0C7.48738 0 0.000488281 7.62085 0.000488281 17.659C0.000488281 25.6851 4.92589 32.5533 11.9612 34.9705C12.8644 35.137 13.1819 34.5652 13.1819 34.0948C13.1819 33.6461 13.1608 31.1709 13.1608 29.6511C13.1608 29.6511 8.22125 30.7367 7.18396 27.4944C7.18396 27.4944 6.37952 25.3884 5.22226 24.8456C5.22226 24.8456 3.60633 23.7093 5.33517 23.731C5.33517 23.731 7.09222 23.8758 8.05896 25.5982C9.60432 28.3918 12.194 27.5885 13.2031 27.1108C13.3654 25.9529 13.8241 25.1495 14.3321 24.6719C10.3876 24.2232 6.40775 23.6369 6.40775 16.6747C6.40775 14.6844 6.94404 13.6857 8.07307 12.4119C7.8896 11.9415 7.2898 10.0019 8.25654 7.49782C9.73133 7.02739 13.1255 9.45188 13.1255 9.45188C14.5368 9.04659 16.0539 8.83671 17.5569 8.83671C19.06 8.83671 20.5771 9.04659 21.9884 9.45188C21.9884 9.45188 25.3825 7.02016 26.8573 7.49782C27.8241 10.0092 27.2243 11.9415 27.0408 12.4119C28.1698 13.6929 28.8614 14.6917 28.8614 16.6747C28.8614 23.6587 24.7051 24.2159 20.7606 24.6719C21.4098 25.2436 21.9602 26.3292 21.9602 28.03C21.9602 30.4689 21.939 33.4869 21.939 34.0803C21.939 34.5508 22.2636 35.1225 23.1598 34.956C30.2162 32.5533 35.0005 25.6851 35.0005 17.659C35.0005 7.62085 27.062 0 17.2747 0ZM6.85936 24.9614C6.76763 25.0337 6.78879 25.2002 6.90875 25.3377C7.02166 25.4535 7.18396 25.5042 7.27569 25.4101C7.36742 25.3377 7.34625 25.1712 7.22629 25.0337C7.11339 24.9179 6.95109 24.8673 6.85936 24.9614ZM6.09726 24.3751C6.04787 24.4692 6.11843 24.585 6.25956 24.6574C6.37246 24.7298 6.51359 24.7081 6.56299 24.6067C6.61238 24.5126 6.54182 24.3969 6.40069 24.3245C6.25956 24.2811 6.14666 24.3028 6.09726 24.3751ZM8.38355 26.9516C8.27065 27.0457 8.31299 27.2628 8.47529 27.4003C8.63758 27.5668 8.84222 27.5885 8.93396 27.4727C9.02569 27.3786 8.98335 27.1615 8.84222 27.024C8.68698 26.8575 8.47529 26.8358 8.38355 26.9516ZM7.57912 25.8877C7.46621 25.9601 7.46621 26.1483 7.57912 26.3147C7.69202 26.4812 7.88254 26.5536 7.97428 26.4812C8.08718 26.3871 8.08718 26.1989 7.97428 26.0325C7.87549 25.866 7.69202 25.7936 7.57912 25.8877Z" fill="#FF92D0"/>
</svg>
