<svg width="30" height="30" viewBox="0 0 30 30" fill="none" xmlns="http://www.w3.org/2000/svg">
<circle cx="15" cy="15" r="15" fill="#33613E"/>
<path d="M11.3619 22.13C11.3619 22.2334 11.246 22.3161 11.0998 22.3161C10.9335 22.3316 10.8175 22.2489 10.8175 22.13C10.8175 22.0266 10.9335 21.9439 11.0796 21.9439C11.2308 21.9284 11.3619 22.0111 11.3619 22.13ZM9.79436 21.8973C9.75907 22.0007 9.85988 22.1196 10.0111 22.1506C10.1421 22.2023 10.2933 22.1506 10.3236 22.0472C10.3538 21.9439 10.2581 21.825 10.1069 21.7784C9.97581 21.7423 9.82964 21.7939 9.79436 21.8973ZM12.0222 21.8095C11.876 21.8456 11.7752 21.9439 11.7903 22.0628C11.8054 22.1661 11.9365 22.2334 12.0877 22.1972C12.2339 22.161 12.3347 22.0628 12.3196 21.9594C12.3044 21.8611 12.1683 21.7939 12.0222 21.8095ZM15.3387 2C8.34778 2 3 7.44346 3 14.6135C3 20.3465 6.51815 25.2523 11.5433 26.9789C12.1885 27.0978 12.4153 26.6894 12.4153 26.3534C12.4153 26.0329 12.4002 24.265 12.4002 23.1794C12.4002 23.1794 8.87198 23.9548 8.13105 21.6389C8.13105 21.6389 7.55645 20.1345 6.72984 19.7468C6.72984 19.7468 5.5756 18.9352 6.81048 18.9507C6.81048 18.9507 8.06552 19.0541 8.75605 20.2845C9.85988 22.2799 11.7097 21.7061 12.4304 21.3649C12.5464 20.5378 12.874 19.9639 13.2369 19.6228C10.4194 19.3023 7.57661 18.8835 7.57661 13.9105C7.57661 12.4889 7.95968 11.7755 8.76613 10.8657C8.63508 10.5296 8.20665 9.14422 8.89718 7.35558C9.9506 7.01957 12.375 8.75134 12.375 8.75134C13.3831 8.46185 14.4667 8.31194 15.5403 8.31194C16.6139 8.31194 17.6976 8.46185 18.7056 8.75134C18.7056 8.75134 21.13 7.0144 22.1835 7.35558C22.874 9.14939 22.4456 10.5296 22.3145 10.8657C23.121 11.7807 23.6149 12.494 23.6149 13.9105C23.6149 18.899 20.6462 19.2971 17.8286 19.6228C18.2923 20.0312 18.6855 20.8066 18.6855 22.0214C18.6855 23.7635 18.6704 25.9192 18.6704 26.3431C18.6704 26.6791 18.9022 27.0875 19.5423 26.9686C24.5827 25.2523 28 20.3465 28 14.6135C28 7.44346 22.3296 2 15.3387 2ZM7.89919 19.8295C7.83367 19.8812 7.84879 20.0001 7.93448 20.0984C8.01512 20.1811 8.13105 20.2173 8.19657 20.1501C8.2621 20.0984 8.24698 19.9795 8.16129 19.8812C8.08065 19.7985 7.96472 19.7623 7.89919 19.8295ZM7.35484 19.4108C7.31956 19.478 7.36996 19.5607 7.47077 19.6124C7.55141 19.6641 7.65222 19.6486 7.6875 19.5762C7.72278 19.509 7.67238 19.4263 7.57157 19.3746C7.47077 19.3436 7.39012 19.3591 7.35484 19.4108ZM8.9879 21.2511C8.90726 21.3184 8.9375 21.4734 9.05343 21.5717C9.16935 21.6906 9.31552 21.7061 9.38105 21.6234C9.44657 21.5561 9.41633 21.4011 9.31552 21.3028C9.20464 21.1839 9.05343 21.1684 8.9879 21.2511ZM8.41331 20.4912C8.33266 20.5429 8.33266 20.6773 8.41331 20.7962C8.49395 20.9151 8.63004 20.9668 8.69556 20.9151C8.77621 20.8479 8.77621 20.7135 8.69556 20.5946C8.625 20.4757 8.49395 20.424 8.41331 20.4912Z" fill="#50FA7B"/>
</svg>
