<svg width="25" height="25" viewBox="0 0 25 25" fill="none" xmlns="http://www.w3.org/2000/svg">
<path d="M25 12.5C25 19.4036 19.4036 25 12.5 25C5.59644 25 0 19.4036 0 12.5C0 5.59644 5.59644 0 12.5 0C19.4036 0 25 5.59644 25 12.5Z" fill="#0E0E0E"/>
<path d="M9.28991 19.1699C9.28991 19.2526 9.20159 19.3188 9.09022 19.3188C8.96349 19.3312 8.87517 19.265 8.87517 19.1699C8.87517 19.0872 8.96349 19.021 9.07486 19.021C9.19007 19.0086 9.28991 19.0748 9.28991 19.1699ZM8.0956 18.9838C8.06871 19.0665 8.14552 19.1616 8.26073 19.1864C8.36057 19.2278 8.47578 19.1864 8.49882 19.1037C8.52186 19.021 8.4489 18.9259 8.33369 18.8887C8.23385 18.8597 8.12248 18.9011 8.0956 18.9838ZM9.79299 18.9135C9.68162 18.9424 9.60481 19.021 9.61633 19.1161C9.62785 19.1988 9.7277 19.2526 9.84291 19.2237C9.95428 19.1947 10.0311 19.1161 10.0196 19.0334C10.008 18.9548 9.90435 18.9011 9.79299 18.9135ZM12.3199 3.06592C6.99345 3.06592 2.91895 7.42069 2.91895 13.1567C2.91895 17.7431 5.59944 21.6678 9.42816 23.0491C9.91971 23.1442 10.0925 22.8175 10.0925 22.5487C10.0925 22.2923 10.081 20.8779 10.081 20.0094C10.081 20.0094 7.39283 20.6297 6.82832 18.777C6.82832 18.777 6.39053 17.5736 5.76073 17.2634C5.76073 17.2634 4.88131 16.6141 5.82217 16.6265C5.82217 16.6265 6.77839 16.7092 7.30451 17.6935C8.14552 19.2898 9.55489 18.8308 10.104 18.5578C10.1924 17.8961 10.442 17.4371 10.7185 17.1641C8.57179 16.9077 6.40589 16.5727 6.40589 12.5943C6.40589 11.457 6.69775 10.8863 7.31219 10.1584C7.21234 9.88963 6.88592 8.7813 7.41203 7.35038C8.21464 7.08157 10.0618 8.46699 10.0618 8.46699C10.8299 8.2354 11.6555 8.11547 12.4735 8.11547C13.2914 8.11547 14.1171 8.2354 14.8852 8.46699C14.8852 8.46699 16.7323 7.07744 17.5349 7.35038C18.061 8.78543 17.7346 9.88963 17.6348 10.1584C18.2492 10.8904 18.6256 11.4612 18.6256 12.5943C18.6256 16.5851 16.3636 16.9036 14.2169 17.1641C14.5703 17.4908 14.8698 18.1112 14.8698 19.083C14.8698 20.4767 14.8583 22.2013 14.8583 22.5404C14.8583 22.8092 15.0349 23.1359 15.5226 23.0408C19.3629 21.6678 21.9666 17.7431 21.9666 13.1567C21.9666 7.42069 17.6463 3.06592 12.3199 3.06592ZM6.65166 17.3296C6.60174 17.3709 6.61326 17.466 6.67855 17.5446C6.73999 17.6108 6.82832 17.6397 6.87824 17.586C6.92816 17.5446 6.91664 17.4495 6.85136 17.3709C6.78991 17.3047 6.70159 17.2758 6.65166 17.3296ZM6.23692 16.9946C6.21004 17.0483 6.24844 17.1145 6.32524 17.1559C6.38669 17.1972 6.46349 17.1848 6.49037 17.1269C6.51726 17.0731 6.47885 17.007 6.40205 16.9656C6.32524 16.9408 6.2638 16.9532 6.23692 16.9946ZM7.48116 18.4668C7.41971 18.5206 7.44275 18.6447 7.53108 18.7232C7.61941 18.8184 7.73077 18.8308 7.7807 18.7646C7.83062 18.7108 7.80758 18.5868 7.73077 18.5082C7.64629 18.4131 7.53108 18.4007 7.48116 18.4668ZM7.04337 17.8589C6.98193 17.9003 6.98193 18.0078 7.04337 18.1029C7.10481 18.198 7.2085 18.2394 7.25842 18.198C7.31987 18.1443 7.31987 18.0367 7.25842 17.9416C7.20466 17.8465 7.10481 17.8051 7.04337 17.8589Z" fill="#50FA7B"/>
</svg>
