<svg width="17" height="19" viewBox="0 0 17 19" fill="none" xmlns="http://www.w3.org/2000/svg">
<path d="M9.78109 5.17177V0.428467H1.64307C1.10189 0.428467 0.666504 0.801653 0.666504 1.26552V17.4486C0.666504 17.9124 1.10189 18.2856 1.64307 18.2856H15.3149C15.8561 18.2856 16.2915 17.9124 16.2915 17.4486V6.00882H10.7577C10.2205 6.00882 9.78109 5.63215 9.78109 5.17177ZM12.8918 12.5434L8.96851 15.8812C8.69792 16.1117 8.26091 16.1117 7.99032 15.8812L4.06698 12.5434C3.65397 12.1922 3.94368 11.5892 4.52474 11.5892H7.17692V8.799C7.17692 8.49069 7.46826 8.24097 7.82796 8.24097H9.13005C9.48975 8.24097 9.78109 8.49069 9.78109 8.799V11.5892H12.4333C13.0143 11.5892 13.304 12.1922 12.8918 12.5434ZM16.0067 4.09058L12.0231 0.672607C11.84 0.51566 11.5918 0.428467 11.3314 0.428467H11.0832V4.89275H16.2915V4.68C16.2915 4.46028 16.1898 4.24752 16.0067 4.09058Z" fill="#E6E6E6"/>
</svg>
