<svg width="25" height="25" viewBox="0 0 25 25" fill="none" xmlns="http://www.w3.org/2000/svg">
<circle cx="12.5" cy="12.5" r="12.5" fill="#0E0E0E"/>
<path d="M8.35759 19H5.24777V8.98527H8.35759V19ZM6.801 7.61917C5.80658 7.61917 5 6.79549 5 5.80104C5 5.32338 5.18975 4.86528 5.5275 4.52751C5.86526 4.18975 6.32335 4 6.801 4C7.27866 4 7.73675 4.18975 8.07451 4.52751C8.41226 4.86528 8.60201 5.32338 8.60201 5.80104C8.60201 6.79549 7.79509 7.61917 6.801 7.61917ZM19.9967 19H16.8935V14.1249C16.8935 12.963 16.8701 11.473 15.2767 11.473C13.6598 11.473 13.4121 12.7354 13.4121 14.0412V19H10.3056V8.98527H13.2882V10.3514H13.3317C13.7469 9.56452 14.761 8.73415 16.2741 8.73415C19.4214 8.73415 20 10.8067 20 13.4988V19H19.9967Z" fill="#50FA7B"/>
</svg>
