<svg width="35" height="35" viewBox="0 0 35 35" fill="none" xmlns="http://www.w3.org/2000/svg">
<path d="M17.5005 7.09375C11.8208 7.09375 7.20361 11.7109 7.1958 17.3906C7.1958 19.3359 7.74268 21.2344 8.77393 22.8672L9.01611 23.2578L7.97705 27.0547L11.8755 26.0312L12.2505 26.2578C13.8286 27.1953 15.6411 27.6953 17.4927 27.6953H17.5005C23.1724 27.6953 27.9146 23.0781 27.9146 17.3984C27.9146 14.6484 26.7271 12.0625 24.7817 10.1172C22.8286 8.16406 20.2505 7.09375 17.5005 7.09375ZM23.5552 21.8125C23.2974 22.5391 22.063 23.1953 21.4692 23.2812C20.4849 23.4297 19.7192 23.3516 17.7583 22.5078C14.6567 21.1641 12.6255 18.0391 12.4692 17.8359C12.313 17.6328 11.2036 16.1562 11.2036 14.6328C11.2036 13.1094 12.0005 12.3594 12.2896 12.0469C12.5708 11.7344 12.9067 11.6562 13.1177 11.6562C13.3208 11.6562 13.5317 11.6562 13.7114 11.6641C13.8989 11.6719 14.1567 11.5938 14.4067 12.1953C14.6645 12.8125 15.2817 14.3359 15.3599 14.4922C15.438 14.6484 15.4927 14.8281 15.3833 15.0312C14.7896 16.2188 14.1567 16.1719 14.4771 16.7188C15.6724 18.7734 16.8677 19.4844 18.688 20.3984C19.0005 20.5547 19.1802 20.5312 19.3599 20.3203C19.5396 20.1172 20.1333 19.4141 20.3364 19.1094C20.5395 18.7969 20.7505 18.8516 21.0317 18.9531C21.313 19.0547 22.8364 19.8047 23.1489 19.9609C23.4614 20.1172 23.6646 20.1953 23.7427 20.3203C23.813 20.4688 23.813 21.0938 23.5552 21.8125ZM31.2505 0H3.75049C1.68018 0 0.000488281 1.67969 0.000488281 3.75V31.25C0.000488281 33.3203 1.68018 35 3.75049 35H31.2505C33.3208 35 35.0005 33.3203 35.0005 31.25V3.75C35.0005 1.67969 33.3208 0 31.2505 0ZM17.4927 29.7812C15.4145 29.7812 13.3755 29.2578 11.5708 28.2734L5.00049 30L6.7583 23.5781C5.67236 21.7031 5.10205 19.5703 5.10205 17.3828C5.10986 10.5547 10.6645 5 17.4927 5C20.8052 5 23.9146 6.28906 26.2583 8.63281C28.5942 10.9766 30.0005 14.0859 30.0005 17.3984C30.0005 24.2266 24.3208 29.7812 17.4927 29.7812Z" fill="#FF92D0"/>
</svg>
