<svg width="30" height="30" viewBox="0 0 30 30" fill="none" xmlns="http://www.w3.org/2000/svg">
<circle cx="15" cy="15" r="15" fill="#33613E"/>
<path d="M24.2556 6.63281C21.9174 4.28906 18.8036 3 15.4944 3C8.66406 3 3.10603 8.55804 3.10603 15.3884C3.10603 17.5703 3.67522 19.702 4.75781 21.5826L3 28L9.56808 26.2757C11.3761 27.2634 13.4129 27.7824 15.4888 27.7824H15.4944C22.3192 27.7824 28 22.2243 28 15.394C28 12.0848 26.5937 8.97656 24.2556 6.63281V6.63281ZM15.4944 25.6953C13.6417 25.6953 11.8281 25.1987 10.2489 24.2612L9.875 24.0379L5.97991 25.0592L7.01786 21.2589L6.77232 20.8683C5.73996 19.2277 5.19866 17.3359 5.19866 15.3884C5.19866 9.71317 9.8192 5.09263 15.5 5.09263C18.2511 5.09263 20.8348 6.16406 22.7768 8.11161C24.7187 10.0592 25.9129 12.6429 25.9074 15.394C25.9074 21.0748 21.1696 25.6953 15.4944 25.6953V25.6953ZM21.1417 17.9833C20.8348 17.827 19.3114 17.0792 19.0268 16.9788C18.7422 16.8728 18.5357 16.8225 18.3292 17.135C18.1228 17.4475 17.5313 18.1395 17.3471 18.3516C17.1685 18.558 16.9844 18.5859 16.6775 18.4297C14.8583 17.5201 13.6641 16.8058 12.4643 14.7467C12.1462 14.1998 12.7824 14.2388 13.3739 13.0558C13.4743 12.8493 13.4241 12.6708 13.346 12.5145C13.2679 12.3583 12.6484 10.8348 12.3917 10.2154C12.1406 9.61272 11.8839 9.69643 11.6942 9.68527C11.5156 9.67411 11.3092 9.67411 11.1027 9.67411C10.8962 9.67411 10.5614 9.75223 10.2768 10.0592C9.99219 10.3717 9.1942 11.1194 9.1942 12.6429C9.1942 14.1663 10.3047 15.6395 10.4554 15.846C10.6116 16.0525 12.6373 19.1775 15.7455 20.5223C17.7098 21.3705 18.4799 21.4431 19.4621 21.298C20.0592 21.2087 21.2924 20.5502 21.5491 19.8248C21.8058 19.0993 21.8058 18.4799 21.7277 18.3516C21.6551 18.2121 21.4487 18.1339 21.1417 17.9833Z" fill="#50FA7B"/>
</svg>
