<svg width="25" height="25" viewBox="0 0 25 25" fill="none" xmlns="http://www.w3.org/2000/svg">
<circle cx="12.5" cy="12.5" r="12.5" fill="#0E0E0E"/>
<path d="M17.7533 7.17969C16.3504 5.77344 14.4821 5 12.4967 5C8.39844 5 5.06362 8.33482 5.06362 12.433C5.06362 13.7422 5.40513 15.0212 6.05469 16.1496L5 20L8.94085 18.9654C10.0257 19.558 11.2478 19.8694 12.4933 19.8694H12.4967C16.5915 19.8694 20 16.5346 20 12.4364C20 10.4509 19.1562 8.58594 17.7533 7.17969V7.17969ZM12.4967 18.6172C11.385 18.6172 10.2969 18.3192 9.34933 17.7567L9.125 17.6228L6.78795 18.2355L7.41071 15.9554L7.26339 15.721C6.64397 14.7366 6.3192 13.6016 6.3192 12.433C6.3192 9.0279 9.09152 6.25558 12.5 6.25558C14.1507 6.25558 15.7009 6.89844 16.8661 8.06696C18.0312 9.23549 18.7478 10.7857 18.7444 12.4364C18.7444 15.8449 15.9018 18.6172 12.4967 18.6172V18.6172ZM15.885 13.99C15.7009 13.8962 14.7868 13.4475 14.6161 13.3873C14.4453 13.3237 14.3214 13.2935 14.1975 13.481C14.0737 13.6685 13.7187 14.0837 13.6083 14.2109C13.5011 14.3348 13.3906 14.3516 13.2065 14.2578C12.115 13.7121 11.3984 13.2835 10.6786 12.048C10.4877 11.7199 10.8694 11.7433 11.2243 11.0335C11.2846 10.9096 11.2545 10.8025 11.2076 10.7087C11.1607 10.615 10.7891 9.70089 10.635 9.32924C10.4844 8.96763 10.3304 9.01786 10.2165 9.01116C10.1094 9.00446 9.98549 9.00446 9.86161 9.00446C9.73772 9.00446 9.53683 9.05134 9.36607 9.23549C9.19531 9.42299 8.71652 9.87165 8.71652 10.7857C8.71652 11.6998 9.38281 12.5837 9.47321 12.7076C9.56696 12.8315 10.7824 14.7065 12.6473 15.5134C13.8259 16.0223 14.2879 16.0658 14.8772 15.9788C15.2355 15.9252 15.9754 15.5301 16.1295 15.0949C16.2835 14.6596 16.2835 14.2879 16.2366 14.2109C16.1931 14.1272 16.0692 14.0804 15.885 13.99Z" fill="#50FA7B"/>
</svg>
